# xmcd
#
# Track frame offsets: 
#        150
#        21678
#        42269
#        67715
#        85619
#        103984
#        122491
#        140260
#        161368
#        178867
#        196488
#        217221
#
# Disc length: 3136 seconds
#
# Revision: 0
# Processed by: cddbd v1.5.2PL0 Copyright (c) Steve Scherf et al.
# Submitted via: ExactAudioCopy v0.95a5
#
DISCID=a90c3e0c
DTITLE=RYAN BEAVER - UNDER THE NEONS
DYEAR=2008
DGENRE=Texas Country
TTITLE0=SOUTH TEXAS SKYLINE
TTITLE1=STREETS OF AUSTIN
TTITLE2=TOO TALL JIMMY
TTITLE3=I THOUGHT I KNEW
TTITLE4=I SHOULDA KISSED YOU
TTITLE5=HELLBOUND
TTITLE6=WHATEVER THE NIGHT MAY BRING
TTITLE7=CALL ME
TTITLE8=TWO WORDS SHY OF LONELY
TTITLE9=YOU TALK ABOUT IT
TTITLE10=SING-A-LONG COUNTRY SONG
TTITLE11=UNDER THE NEONS
EXTD=
EXTT0=
EXTT1=
EXTT2=
EXTT3=
EXTT4=
EXTT5=
EXTT6=
EXTT7=
EXTT8=
EXTT9=
EXTT10=
EXTT11=
PLAYORDER=
